<?xml version="1.0" encoding="utf-8"?>
<!-- Generator: Adobe Illustrator 24.0.3, SVG Export Plug-In . SVG Version: 6.00 Build 0)  -->
<svg version="1.1" id="Capa_1" xmlns="http://www.w3.org/2000/svg" xmlns:xlink="http://www.w3.org/1999/xlink" x="0px" y="0px"
	 viewBox="0 0 15 15" style="enable-background:new 0 0 15 15;" xml:space="preserve">
<path d="M15,7.5c0,4.1-3.4,7.5-7.5,7.5S0,11.6,0,7.5S3.4,0,7.5,0S15,3.4,15,7.5z M11,11c0.2-0.2,0.3-0.5,0.3-0.8S11.2,9.6,11,9.3
	L9.1,7.5L11,5.7c0.5-0.5,0.5-1.2,0-1.6c-0.2-0.2-0.5-0.3-0.8-0.3C9.8,3.7,9.6,3.8,9.3,4L7.5,5.9L5.7,4C5.4,3.8,5.2,3.7,4.8,3.7
	C4.5,3.7,4.2,3.8,4,4C3.6,4.5,3.6,5.2,4,5.7l1.8,1.8L4,9.3c-0.2,0.2-0.3,0.5-0.3,0.8c0,0.3,0.1,0.6,0.3,0.8c0.2,0.2,0.5,0.3,0.8,0.3
	c0.3,0,0.6-0.1,0.8-0.3l1.8-1.8L9.3,11c0.2,0.2,0.5,0.3,0.8,0.3C10.5,11.3,10.8,11.2,11,11z"/>
</svg>
