<?xml version="1.0" encoding="utf-8"?>
<!-- Generator: Adobe Illustrator 17.0.0, SVG Export Plug-In . SVG Version: 6.00 Build 0)  -->
<!DOCTYPE svg PUBLIC "-//W3C//DTD SVG 1.1//EN" "http://www.w3.org/Graphics/SVG/1.1/DTD/svg11.dtd">
<svg version="1.1" id="Capa_1" xmlns="http://www.w3.org/2000/svg" xmlns:xlink="http://www.w3.org/1999/xlink" x="0px" y="0px"
	 width="15px" height="15px" viewBox="347 162.912 15 15" enable-background="new 347 162.912 15 15" xml:space="preserve">
<g>
	<path d="M359.806,165.106c-2.925-2.925-7.686-2.926-10.612,0c-2.926,2.926-2.925,7.686,0,10.611c2.925,2.926,7.686,2.926,10.612,0
		C362.731,172.792,362.731,168.032,359.806,165.106z M358.445,174.357c-0.301,0.301-0.788,0.301-1.088,0L354.5,171.5l-2.993,2.993
		c-0.301,0.301-0.788,0.301-1.088,0c-0.301-0.301-0.301-0.788,0-1.088l2.993-2.993l-2.857-2.857c-0.301-0.301-0.301-0.788,0-1.088
		c0.301-0.301,0.788-0.301,1.088,0l2.857,2.857l2.721-2.721c0.301-0.301,0.788-0.301,1.088,0c0.301,0.301,0.301,0.788,0,1.088
		l-2.721,2.721l2.857,2.857C358.746,173.569,358.746,174.057,358.445,174.357z"/>
</g>
</svg>
