<svg id="Layer_1" data-name="Layer 1" xmlns="http://www.w3.org/2000/svg" viewBox="0 0 39.31 30"><defs><style>.cls-1{fill:#fff;}</style></defs><title>e-mail-notification</title><path class="cls-1" d="M29.19,0H3A3,3,0,0,0,0,3V19.88a3,3,0,0,0,3,3H19.56A0.43,0.43,0,0,0,20,22.47V22.29a0.43,0.43,0,0,0-.43-0.43H3a2,2,0,0,1-2-2V3A2,2,0,0,1,3,1H29.19a2,2,0,0,1,2,2v7.11a0.43,0.43,0,0,0,.43.43h0.18a0.43,0.43,0,0,0,.43-0.43V3A3,3,0,0,0,29.19,0Z"/><path class="cls-1" d="M31.34,1.07A0.52,0.52,0,0,0,30.6,1L17.33,12.59a2,2,0,0,1-2.45,0L1.61,1a0.52,0.52,0,0,0-.68.78L14.2,13.37a3,3,0,0,0,3.81,0L31.29,1.81A0.52,0.52,0,0,0,31.34,1.07Z"/><path class="cls-1" d="M39.31,21.86a8.14,8.14,0,1,1-8.14-8.14A8.14,8.14,0,0,1,39.31,21.86Zm-8.14-7.21a7.21,7.21,0,1,0,7.21,7.21A7.21,7.21,0,0,0,31.18,14.66Z"/><path class="cls-1" d="M27.69,24.35l0.92-.11V19.77l-0.94,0v-0.5l1.74-.38v5.32l0.92,0.11v0.51H27.69V24.35Z"/><path class="cls-1" d="M33.36,18.83a2.67,2.67,0,0,1,.6.07,2,2,0,0,1,.5.18l-0.16.6a2.25,2.25,0,0,0-.42-0.15,2.12,2.12,0,0,0-.52-0.06,1.2,1.2,0,0,0-1,.47A2.39,2.39,0,0,0,32,21.36l0,0A1.68,1.68,0,0,1,32.55,21a2,2,0,0,1,.72-0.12,1.59,1.59,0,0,1,1.27.55,2.07,2.07,0,0,1,.47,1.4,2.22,2.22,0,0,1-.5,1.51,1.69,1.69,0,0,1-1.35.58,1.86,1.86,0,0,1-1.44-.63,2.58,2.58,0,0,1-.57-1.79v-0.8a3.27,3.27,0,0,1,.62-2.15A2,2,0,0,1,33.36,18.83Zm-0.27,2.68a1.4,1.4,0,0,0-.7.17,1.13,1.13,0,0,0-.44.44V22.6a2,2,0,0,0,.35,1.27,1.06,1.06,0,0,0,.87.45,0.87,0.87,0,0,0,.77-0.42,1.85,1.85,0,0,0,.28-1,1.53,1.53,0,0,0-.3-1A1,1,0,0,0,33.09,21.51Z"/></svg>