<?xml version="1.0" encoding="utf-8"?>
<!-- Generator: Adobe Illustrator 16.0.0, SVG Export Plug-In . SVG Version: 6.00 Build 0)  -->
<!DOCTYPE svg PUBLIC "-//W3C//DTD SVG 1.1//EN" "http://www.w3.org/Graphics/SVG/1.1/DTD/svg11.dtd">
<svg version="1.1" id="Capa_1" xmlns="http://www.w3.org/2000/svg" xmlns:xlink="http://www.w3.org/1999/xlink" x="0px" y="0px"
	 width="42.738px" height="33.479px" viewBox="236.251 241 42.738 33.479" enable-background="new 236.251 241 42.738 33.479"
	 xml:space="preserve">
<path fill="#FFFFFF" d="M271.062,241h-30.123c-2.585,0-4.688,2.02-4.688,4.502v20.996c0,2.482,2.103,4.502,4.688,4.502h30.123
	c2.585,0,4.688-2.02,4.688-4.502v-20.996C275.749,243.02,273.646,241,271.062,241z M271.062,267.025h-30.123
	c-0.38,0-0.713-0.246-0.713-0.527v-18.219l13.624,11.501c0.279,0.236,0.634,0.366,1,0.366h2.301c0.365,0,0.721-0.13,1-0.366
	l13.624-11.502v18.22C271.774,266.779,271.441,267.025,271.062,267.025z M256,256.2l-13.25-11.225h26.501L256,256.2z"/>
<circle fill="#CA4A1F" cx="271.483" cy="266.971" r="7.5"/>
<line fill="#FFFFFF" stroke="#FFFFFF" stroke-miterlimit="10" x1="267.197" y1="266.979" x2="275.78" y2="266.979"/>
<line fill="#FFFFFF" stroke="#FFFFFF" stroke-miterlimit="10" x1="271.488" y1="262.687" x2="271.488" y2="271.27"/>
</svg>
