<svg id="Layer_1" data-name="Layer 1" xmlns="http://www.w3.org/2000/svg" viewBox="0 0 55.83 17.54"><defs><style>.cls-1{fill:#6856d5;}.cls-2{fill:#ffde00;}</style></defs><title>exit-intent-form</title><rect class="cls-1" x="0.92" width="7.92" height="1.83"/><rect class="cls-1" x="10.92" width="13.92" height="1.83"/><rect class="cls-1" x="26.92" width="3.92" height="1.83"/><rect class="cls-1" x="32.92" width="22.92" height="1.83"/><rect class="cls-1" x="20.08" y="5" width="9.31" height="1.83"/><rect class="cls-1" x="31.48" y="5" width="6.92" height="1.83"/><rect class="cls-1" x="0.92" y="5" width="16.92" height="1.83"/><path class="cls-1" d="M28.88,17.54H2a1.86,1.86,0,0,1-2-1.67V15.71A1.86,1.86,0,0,1,2,14H28.88v3.5Z"/><path class="cls-2" d="M39.38,17.54H28.5V14H39.38a1.86,1.86,0,0,1,2,1.67v0.16A1.86,1.86,0,0,1,39.38,17.54Z"/></svg>