<svg id="Layer_1" data-name="Layer 1" xmlns="http://www.w3.org/2000/svg" viewBox="0 0 70 70"><defs><style>.cls-1{fill:#f14f1d;}.cls-2{fill:#ff5e2d;}.cls-3{fill:#ffe3da;}</style></defs><title>warning-icon</title><circle class="cls-1" cx="35" cy="35" r="35"/><circle class="cls-2" cx="35" cy="35" r="31.41"/><path class="cls-3" d="M47.38,52.79a5.38,5.38,0,0,1-3.83-1.58L35,42.65l-8.55,8.56a5.41,5.41,0,1,1-7.65-7.66L27.35,35l-8.56-8.55a5.41,5.41,0,1,1,7.66-7.65L35,27.35l8.55-8.55a5.41,5.41,0,0,1,7.66,0,5.42,5.42,0,0,1,0,7.65L42.66,35l8.55,8.55a5.41,5.41,0,0,1-3.83,9.24Z"/></svg>