<svg id="Layer_1" data-name="Layer 1" xmlns="http://www.w3.org/2000/svg" viewBox="0 0 73.48 70"><defs><style>.cls-1{fill:#535453;}</style></defs><title>reports-icon</title><path class="cls-1" d="M19.86,49.28V66.53A3.48,3.48,0,0,1,16.39,70H3.47A3.48,3.48,0,0,1,0,66.53V49.28A3.5,3.5,0,0,1,3.48,45.8H16.39A3.49,3.49,0,0,1,19.86,49.28Z"/><path class="cls-1" d="M46.67,3.48V66.53A3.48,3.48,0,0,1,43.2,70H30.28a3.48,3.48,0,0,1-3.47-3.47v-63A3.49,3.49,0,0,1,30.29,0h12.9A3.48,3.48,0,0,1,46.67,3.48Z"/><path class="cls-1" d="M73.48,22.34V66.53A3.49,3.49,0,0,1,70,70H57.09a3.49,3.49,0,0,1-3.48-3.47V22.35a3.49,3.49,0,0,1,3.48-3.48H70A3.49,3.49,0,0,1,73.48,22.34Z"/></svg>