<svg id="Layer_1" data-name="Layer 1" xmlns="http://www.w3.org/2000/svg" viewBox="0 0 105.41 86.81"><defs><style>.cls-1{fill:#23282d;}</style></defs><title>review-notification</title><path class="cls-1" d="M91.5,6.28a0.53,0.53,0,0,0-.57-0.47L85.8,5.07l-2.3-4.65a0.51,0.51,0,0,0-1,0l-2.3,4.65-5.13.75a0.53,0.53,0,0,0-.57.47,0.78,0.78,0,0,0,.26.49l3.72,3.62L77.6,15.49a1.66,1.66,0,0,0,0,.2,0.6,0.6,0,0,0,.11.36,0.37,0.37,0,0,0,.32.15,0.87,0.87,0,0,0,.41-0.12L83,13.67l4.59,2.41a0.83,0.83,0,0,0,.41.12,0.42,0.42,0,0,0,.42-0.51,1.55,1.55,0,0,0,0-.2l-0.88-5.11,3.71-3.62A0.74,0.74,0,0,0,91.5,6.28ZM86.12,9.93l0.74,4.3-3.85-2-3.86,2,0.75-4.3-3.13-3,4.31-.63L83,2.36l1.93,3.9,4.31,0.63Z"/><path class="cls-1" d="M36.5,61.36a0.88,0.88,0,0,1-.87-1l2.74-16L26.77,33.07a0.88,0.88,0,0,1,.49-1.51l16-2.33,7.16-14.51a0.88,0.88,0,0,1,.79-0.49h0a0.88,0.88,0,0,1,.79.49l7.16,14.51,16,2.33a0.89,0.89,0,0,1,.49,1.51L64.11,44.37l2.74,16a0.88,0.88,0,0,1-1.28.93L51.24,53.72,36.91,61.25A0.89,0.89,0,0,1,36.5,61.36ZM29.3,33.06L39.93,43.43a0.89,0.89,0,0,1,.25.78L37.68,58.85l13.15-6.91a0.88,0.88,0,0,1,.82,0L64.8,58.85,62.29,44.21a0.89,0.89,0,0,1,.25-0.78L73.18,33.06l-14.7-2.14a0.89,0.89,0,0,1-.67-0.48L51.24,17.11,44.66,30.44a0.89,0.89,0,0,1-.67.48Z"/><path class="cls-1" d="M105.37,57.37a0.86,0.86,0,0,0-.69-0.58l-9.57-1.36-4.31-8.66A0.85,0.85,0,0,0,90,46.31h0a0.85,0.85,0,0,0-.76.48L85,55.47l-9.57,1.42a0.86,0.86,0,0,0-.69.58,0.84,0.84,0,0,0,.22.87l6.94,6.73L80.34,74.6a0.85,0.85,0,0,0,.84,1,0.81,0.81,0,0,0,.4-0.1L90.12,71l8.57,4.48a0.87,0.87,0,0,0,.39.09h0a0.85,0.85,0,0,0,.85-0.85,0.66,0.66,0,0,0,0-.2L98.24,65l6.9-6.77A0.83,0.83,0,0,0,105.37,57.37Zm-8.62,6.74a0.84,0.84,0,0,0-.24.76l1.44,8.27-7.44-3.88a0.86,0.86,0,0,0-.79,0L82.3,73.18l1.39-8.28a0.85,0.85,0,0,0-.25-0.75l-6-5.84,8.3-1.23a0.84,0.84,0,0,0,.64-0.47l3.69-7.54,3.74,7.52a0.86,0.86,0,0,0,.64.47l8.31,1.18Z"/><path class="cls-1" d="M24.22,56.66a0.68,0.68,0,0,0-.54-0.46l-7.57-1.08-3.4-6.84a0.67,0.67,0,0,0-.6-0.37h0a0.67,0.67,0,0,0-.6.38L8.14,55.15,0.58,56.27a0.68,0.68,0,0,0-.54.46,0.66,0.66,0,0,0,.17.69L5.7,62.74,4.43,70.27a0.68,0.68,0,0,0,.66.79A0.64,0.64,0,0,0,5.4,71l6.75-3.58,6.77,3.54a0.69,0.69,0,0,0,.31.07h0a0.68,0.68,0,0,0,.67-0.67,0.53,0.53,0,0,0,0-.15L18.58,62.7,24,57.35A0.66,0.66,0,0,0,24.22,56.66ZM17.4,62a0.66,0.66,0,0,0-.19.6l1.14,6.54L12.47,66a0.68,0.68,0,0,0-.63,0L6,69.15l1.1-6.55A0.67,0.67,0,0,0,6.88,62L2.12,57.4l6.57-1a0.67,0.67,0,0,0,.5-0.37l2.92-6,3,5.94a0.68,0.68,0,0,0,.51.37l6.57,0.94Z"/><path class="cls-1" d="M41.24,76.88a0.53,0.53,0,0,0-.57-0.47l-5.13-.75L33.25,71a0.51,0.51,0,0,0-1,0l-2.3,4.65-5.13.75a0.53,0.53,0,0,0-.57.47,0.78,0.78,0,0,0,.26.49L28.22,81l-0.88,5.11a1.66,1.66,0,0,0,0,.2,0.6,0.6,0,0,0,.11.36,0.37,0.37,0,0,0,.32.15,0.87,0.87,0,0,0,.41-0.12l4.59-2.41,4.59,2.41a0.83,0.83,0,0,0,.41.12,0.42,0.42,0,0,0,.42-0.51,1.55,1.55,0,0,0,0-.2L37.27,81,41,77.37A0.74,0.74,0,0,0,41.24,76.88Zm-5.38,3.65,0.74,4.3-3.85-2-3.86,2,0.75-4.3-3.13-3,4.31-.63L32.75,73l1.93,3.9L39,77.49Z"/><path class="cls-1" d="M53.47,37l-0.17-1h-4L48.9,39.66a4,4,0,0,1,.93-0.52A3.47,3.47,0,0,1,51,38.92a3.58,3.58,0,0,1,2.89,1.2A4.81,4.81,0,0,1,55,43.38a4.67,4.67,0,0,1-1.07,3.21,4,4,0,0,1-3.12,1.21A4.26,4.26,0,0,1,48,46.89a3.2,3.2,0,0,1-1.07-2.71l0-.05h1.62a2.11,2.11,0,0,0,2.24,2.28,2.12,2.12,0,0,0,1.77-.8,3.48,3.48,0,0,0,.63-2.2,3.33,3.33,0,0,0-.63-2.1,2.1,2.1,0,0,0-1.76-.82,2.85,2.85,0,0,0-1.54.32,1.81,1.81,0,0,0-.7,1L47,41.62l0.77-7.29h7V37H53.47Z"/></svg>