<svg id="Layer_1" data-name="Layer 1" xmlns="http://www.w3.org/2000/svg" viewBox="0 0 70 70"><defs><style>.cls-1{fill:#535453;}</style></defs><title>world-map-icon</title><path class="cls-1" d="M69.84,31.62a36.18,36.18,0,0,0-.7-4.45.75.75,0,0,1,0-.16A35,35,0,0,0,.39,29.68c-.08.51-.14,1-.2,1.52,0,0,0,.07,0,.11s0,.2,0,.3a.86.86,0,0,0,0,.16.28.28,0,0,0,0,.09A.18.18,0,0,1,0,32v5.74a3.05,3.05,0,0,1,.17.51A35,35,0,0,0,32,69.75a1.27,1.27,0,0,1,.18.06h.67c.73,0,1.46.08,2.2.08s1.46,0,2.18-.08h.42l.17,0A35,35,0,0,0,67.64,47.49a.61.61,0,0,0,0-.12c.3-.79.58-1.59.82-2.41a.84.84,0,0,0,0-.17,34.78,34.78,0,0,0,1.27-6.5l0-.21c0-.12,0-.28.14-.33v-5.6A3.24,3.24,0,0,1,69.84,31.62ZM8.62,34.89a26.31,26.31,0,0,1,4.94-15.37,2.11,2.11,0,0,1,.74,2.94,6.19,6.19,0,0,0,2.24,8.06C19.28,32.3,22,34.15,24.72,36a2.1,2.1,0,0,1,.75.84c.55,1.15,1.14,2.27,1.7,3.41a3.57,3.57,0,0,1-.74,4.42c-.33.34-.68.67-1,1a2,2,0,0,0,0,3c.78.8,1.58,1.58,2.36,2.37a3.43,3.43,0,0,1,1.07,2.5,28,28,0,0,0,1,7.21A26.38,26.38,0,0,1,8.62,34.89Zm40.73,8.29A2,2,0,0,0,47.16,41c-1.07,0-2.14,0-3.22,0a5.34,5.34,0,0,1-5.09-3,9.4,9.4,0,0,0-6.5-5,16.14,16.14,0,0,0-3.74-.19.71.71,0,0,1-.78-.46c-1.54-3-.88-5.28,2.05-7a6.14,6.14,0,0,0,3.06-5.17c0-.54,0-1.09,0-1.64a2.07,2.07,0,0,1,2.11-2.11,24.78,24.78,0,0,0,3.55-.11,6.14,6.14,0,0,0,5-6.39,26.39,26.39,0,0,1,8.54,4.9c-.24.24-.47.49-.72.72a6.34,6.34,0,0,0-2.08,5,15.05,15.05,0,0,0,.25,3.73,6.17,6.17,0,0,0,5.69,4.43,2.11,2.11,0,0,1,2.27,2.37c0,.28,0,.55,0,.82a8.14,8.14,0,0,1-.94,4.44,6,6,0,0,0,2.93,8.17A26.42,26.42,0,0,1,41,60.56c.21-.29.41-.58.63-.87a43.76,43.76,0,0,1,4.42-5,10.42,10.42,0,0,0,3.27-8C49.33,45.5,49.36,44.34,49.35,43.18Z" transform="translate(0 0.11)"/></svg>